<svg xmlns="http://www.w3.org/2000/svg" xmlns:xlink="http://www.w3.org/1999/xlink" width="740" zoomAndPan="magnify" viewBox="0 0 555 112.499997" height="150" preserveAspectRatio="xMidYMid meet" version="1.0"><defs><g/></defs><g fill="#ffcf00" fill-opacity="1"><g transform="translate(3.869298, 75.767623)"><g><path d="M 23.71875 -8.375 C 23.71875 -5.476562 22.710938 -3.273438 20.703125 -1.765625 C 18.691406 -0.253906 15.6875 0.5 11.6875 0.5 C 9.632812 0.5 7.882812 0.359375 6.4375 0.078125 C 4.988281 -0.191406 3.632812 -0.597656 2.375 -1.140625 L 2.375 -7.5 C 3.800781 -6.820312 5.410156 -6.253906 7.203125 -5.796875 C 8.992188 -5.347656 10.570312 -5.125 11.9375 -5.125 C 14.726562 -5.125 16.125 -5.929688 16.125 -7.546875 C 16.125 -8.148438 15.9375 -8.640625 15.5625 -9.015625 C 15.195312 -9.398438 14.554688 -9.832031 13.640625 -10.3125 C 12.734375 -10.789062 11.523438 -11.347656 10.015625 -11.984375 C 7.847656 -12.890625 6.253906 -13.726562 5.234375 -14.5 C 4.210938 -15.28125 3.472656 -16.171875 3.015625 -17.171875 C 2.554688 -18.171875 2.328125 -19.398438 2.328125 -20.859375 C 2.328125 -23.367188 3.296875 -25.304688 5.234375 -26.671875 C 7.179688 -28.046875 9.9375 -28.734375 13.5 -28.734375 C 16.894531 -28.734375 20.195312 -27.992188 23.40625 -26.515625 L 21.09375 -20.96875 C 19.675781 -21.570312 18.351562 -22.066406 17.125 -22.453125 C 15.90625 -22.835938 14.65625 -23.03125 13.375 -23.03125 C 11.101562 -23.03125 9.96875 -22.414062 9.96875 -21.1875 C 9.96875 -20.5 10.332031 -19.898438 11.0625 -19.390625 C 11.789062 -18.890625 13.394531 -18.144531 15.875 -17.15625 C 18.070312 -16.257812 19.679688 -15.425781 20.703125 -14.65625 C 21.734375 -13.882812 22.492188 -12.992188 22.984375 -11.984375 C 23.472656 -10.972656 23.71875 -9.769531 23.71875 -8.375 Z M 23.71875 -8.375 "/></g></g></g><g fill="#ffcf00" fill-opacity="1"><g transform="translate(29.552479, 75.767623)"><g><path d="M 24.015625 0 L 22.984375 -3.609375 L 22.578125 -3.609375 C 21.753906 -2.296875 20.582031 -1.28125 19.0625 -0.5625 C 17.550781 0.144531 15.832031 0.5 13.90625 0.5 C 10.59375 0.5 8.09375 -0.382812 6.40625 -2.15625 C 4.726562 -3.925781 3.890625 -6.476562 3.890625 -9.8125 L 3.890625 -28.203125 L 11.578125 -28.203125 L 11.578125 -11.734375 C 11.578125 -9.691406 11.9375 -8.160156 12.65625 -7.140625 C 13.382812 -6.128906 14.539062 -5.625 16.125 -5.625 C 18.28125 -5.625 19.835938 -6.34375 20.796875 -7.78125 C 21.753906 -9.21875 22.234375 -11.601562 22.234375 -14.9375 L 22.234375 -28.203125 L 29.921875 -28.203125 L 29.921875 0 Z M 24.015625 0 "/></g></g></g><g fill="#ffcf00" fill-opacity="1"><g transform="translate(63.51079, 75.767623)"><g><path d="M 15.484375 0.5 C 6.710938 0.5 2.328125 -4.316406 2.328125 -13.953125 C 2.328125 -18.742188 3.519531 -22.40625 5.90625 -24.9375 C 8.289062 -27.46875 11.710938 -28.734375 16.171875 -28.734375 C 19.429688 -28.734375 22.359375 -28.09375 24.953125 -26.8125 L 22.6875 -20.859375 C 21.46875 -21.347656 20.335938 -21.75 19.296875 -22.0625 C 18.253906 -22.375 17.210938 -22.53125 16.171875 -22.53125 C 12.171875 -22.53125 10.171875 -19.6875 10.171875 -14 C 10.171875 -8.488281 12.171875 -5.734375 16.171875 -5.734375 C 17.648438 -5.734375 19.019531 -5.925781 20.28125 -6.3125 C 21.539062 -6.707031 22.800781 -7.328125 24.0625 -8.171875 L 24.0625 -1.59375 C 22.820312 -0.800781 21.566406 -0.253906 20.296875 0.046875 C 19.023438 0.347656 17.421875 0.5 15.484375 0.5 Z M 15.484375 0.5 "/></g></g></g><g fill="#ffcf00" fill-opacity="1"><g transform="translate(90.076987, 75.767623)"><g><path d="M 10.171875 -14.15625 C 10.171875 -11.363281 10.628906 -9.25 11.546875 -7.8125 C 12.460938 -6.382812 13.953125 -5.671875 16.015625 -5.671875 C 18.066406 -5.671875 19.539062 -6.378906 20.4375 -7.796875 C 21.34375 -9.222656 21.796875 -11.34375 21.796875 -14.15625 C 21.796875 -16.945312 21.34375 -19.039062 20.4375 -20.4375 C 19.53125 -21.832031 18.039062 -22.53125 15.96875 -22.53125 C 13.914062 -22.53125 12.4375 -21.835938 11.53125 -20.453125 C 10.625 -19.066406 10.171875 -16.96875 10.171875 -14.15625 Z M 29.671875 -14.15625 C 29.671875 -9.5625 28.457031 -5.96875 26.03125 -3.375 C 23.613281 -0.789062 20.242188 0.5 15.921875 0.5 C 13.210938 0.5 10.820312 -0.0859375 8.75 -1.265625 C 6.6875 -2.453125 5.097656 -4.15625 3.984375 -6.375 C 2.878906 -8.601562 2.328125 -11.195312 2.328125 -14.15625 C 2.328125 -18.757812 3.523438 -22.335938 5.921875 -24.890625 C 8.328125 -27.453125 11.710938 -28.734375 16.078125 -28.734375 C 18.785156 -28.734375 21.171875 -28.144531 23.234375 -26.96875 C 25.304688 -25.789062 26.894531 -24.097656 28 -21.890625 C 29.113281 -19.691406 29.671875 -17.113281 29.671875 -14.15625 Z M 29.671875 -14.15625 "/></g></g></g><g fill="#ffcf00" fill-opacity="1"><g transform="translate(122.067432, 75.767623)"><g/></g></g><g fill="#ffcf00" fill-opacity="1"><g transform="translate(135.48929, 75.767623)"><g><path d="M 29.296875 0 L 21.59375 0 L 21.59375 -16.46875 C 21.59375 -18.507812 21.25 -20.035156 20.5625 -21.046875 C 19.882812 -22.066406 18.816406 -22.578125 17.359375 -22.578125 C 15.390625 -22.578125 13.957031 -21.851562 13.0625 -20.40625 C 12.175781 -18.957031 11.734375 -16.578125 11.734375 -13.265625 L 11.734375 0 L 4.03125 0 L 4.03125 -28.203125 L 9.921875 -28.203125 L 10.953125 -24.59375 L 11.375 -24.59375 C 12.132812 -25.894531 13.226562 -26.910156 14.65625 -27.640625 C 16.082031 -28.367188 17.722656 -28.734375 19.578125 -28.734375 C 23.796875 -28.734375 26.65625 -27.351562 28.15625 -24.59375 L 28.84375 -24.59375 C 29.59375 -25.90625 30.703125 -26.921875 32.171875 -27.640625 C 33.648438 -28.367188 35.316406 -28.734375 37.171875 -28.734375 C 40.359375 -28.734375 42.769531 -27.910156 44.40625 -26.265625 C 46.050781 -24.628906 46.875 -22.003906 46.875 -18.390625 L 46.875 0 L 39.15625 0 L 39.15625 -16.46875 C 39.15625 -18.507812 38.8125 -20.035156 38.125 -21.046875 C 37.445312 -22.066406 36.378906 -22.578125 34.921875 -22.578125 C 33.035156 -22.578125 31.625 -21.90625 30.6875 -20.5625 C 29.757812 -19.21875 29.296875 -17.082031 29.296875 -14.15625 Z M 29.296875 0 "/></g></g></g><g fill="#ffcf00" fill-opacity="1"><g transform="translate(186.224924, 75.767623)"><g><path d="M 21.953125 0 L 20.46875 -3.828125 L 20.265625 -3.828125 C 18.960938 -2.203125 17.625 -1.070312 16.25 -0.4375 C 14.882812 0.1875 13.101562 0.5 10.90625 0.5 C 8.195312 0.5 6.0625 -0.269531 4.5 -1.8125 C 2.945312 -3.363281 2.171875 -5.566406 2.171875 -8.421875 C 2.171875 -11.421875 3.21875 -13.628906 5.3125 -15.046875 C 7.40625 -16.472656 10.5625 -17.257812 14.78125 -17.40625 L 19.6875 -17.5625 L 19.6875 -18.796875 C 19.6875 -21.648438 18.222656 -23.078125 15.296875 -23.078125 C 13.035156 -23.078125 10.382812 -22.398438 7.34375 -21.046875 L 4.796875 -26.234375 C 8.035156 -27.929688 11.632812 -28.78125 15.59375 -28.78125 C 19.375 -28.78125 22.273438 -27.957031 24.296875 -26.3125 C 26.316406 -24.664062 27.328125 -22.160156 27.328125 -18.796875 L 27.328125 0 Z M 19.6875 -13.0625 L 16.703125 -12.96875 C 14.460938 -12.90625 12.796875 -12.5 11.703125 -11.75 C 10.609375 -11.007812 10.0625 -9.882812 10.0625 -8.375 C 10.0625 -6.207031 11.304688 -5.125 13.796875 -5.125 C 15.578125 -5.125 17.003906 -5.632812 18.078125 -6.65625 C 19.148438 -7.6875 19.6875 -9.050781 19.6875 -10.75 Z M 19.6875 -13.0625 "/></g></g></g><g fill="#ffcf00" fill-opacity="1"><g transform="translate(217.433256, 75.767623)"><g><path d="M 19.78125 -28.734375 C 20.820312 -28.734375 21.6875 -28.660156 22.375 -28.515625 L 21.796875 -21.296875 C 21.171875 -21.460938 20.414062 -21.546875 19.53125 -21.546875 C 17.070312 -21.546875 15.15625 -20.914062 13.78125 -19.65625 C 12.414062 -18.394531 11.734375 -16.628906 11.734375 -14.359375 L 11.734375 0 L 4.03125 0 L 4.03125 -28.203125 L 9.859375 -28.203125 L 11 -23.46875 L 11.375 -23.46875 C 12.25 -25.050781 13.429688 -26.320312 14.921875 -27.28125 C 16.410156 -28.25 18.03125 -28.734375 19.78125 -28.734375 Z M 19.78125 -28.734375 "/></g></g></g><g fill="#ffcf00" fill-opacity="1"><g transform="translate(240.896279, 75.767623)"><g><path d="M 3.703125 -35.5 C 3.703125 -38.007812 5.097656 -39.265625 7.890625 -39.265625 C 10.679688 -39.265625 12.078125 -38.007812 12.078125 -35.5 C 12.078125 -34.300781 11.726562 -33.367188 11.03125 -32.703125 C 10.332031 -32.046875 9.285156 -31.71875 7.890625 -31.71875 C 5.097656 -31.71875 3.703125 -32.976562 3.703125 -35.5 Z M 11.734375 0 L 4.03125 0 L 4.03125 -28.203125 L 11.734375 -28.203125 Z M 11.734375 0 "/></g></g></g><g fill="#ffcf00" fill-opacity="1"><g transform="translate(256.664451, 75.767623)"><g><path d="M 21.953125 0 L 20.46875 -3.828125 L 20.265625 -3.828125 C 18.960938 -2.203125 17.625 -1.070312 16.25 -0.4375 C 14.882812 0.1875 13.101562 0.5 10.90625 0.5 C 8.195312 0.5 6.0625 -0.269531 4.5 -1.8125 C 2.945312 -3.363281 2.171875 -5.566406 2.171875 -8.421875 C 2.171875 -11.421875 3.21875 -13.628906 5.3125 -15.046875 C 7.40625 -16.472656 10.5625 -17.257812 14.78125 -17.40625 L 19.6875 -17.5625 L 19.6875 -18.796875 C 19.6875 -21.648438 18.222656 -23.078125 15.296875 -23.078125 C 13.035156 -23.078125 10.382812 -22.398438 7.34375 -21.046875 L 4.796875 -26.234375 C 8.035156 -27.929688 11.632812 -28.78125 15.59375 -28.78125 C 19.375 -28.78125 22.273438 -27.957031 24.296875 -26.3125 C 26.316406 -24.664062 27.328125 -22.160156 27.328125 -18.796875 L 27.328125 0 Z M 19.6875 -13.0625 L 16.703125 -12.96875 C 14.460938 -12.90625 12.796875 -12.5 11.703125 -11.75 C 10.609375 -11.007812 10.0625 -9.882812 10.0625 -8.375 C 10.0625 -6.207031 11.304688 -5.125 13.796875 -5.125 C 15.578125 -5.125 17.003906 -5.632812 18.078125 -6.65625 C 19.148438 -7.6875 19.6875 -9.050781 19.6875 -10.75 Z M 19.6875 -13.0625 "/></g></g></g><g fill="#ffcf00" fill-opacity="1"><g transform="translate(287.872783, 75.767623)"><g/></g></g><g fill="#ffcf00" fill-opacity="1"><g transform="translate(301.294641, 75.767623)"><g><path d="M 19.53125 0.5 C 16.21875 0.5 13.617188 -0.703125 11.734375 -3.109375 L 11.328125 -3.109375 C 11.597656 -0.753906 11.734375 0.609375 11.734375 0.984375 L 11.734375 12.40625 L 4.03125 12.40625 L 4.03125 -28.203125 L 10.296875 -28.203125 L 11.375 -24.546875 L 11.734375 -24.546875 C 13.535156 -27.335938 16.203125 -28.734375 19.734375 -28.734375 C 23.054688 -28.734375 25.660156 -27.445312 27.546875 -24.875 C 29.429688 -22.300781 30.375 -18.726562 30.375 -14.15625 C 30.375 -11.144531 29.929688 -8.53125 29.046875 -6.3125 C 28.171875 -4.09375 26.914062 -2.398438 25.28125 -1.234375 C 23.644531 -0.078125 21.726562 0.5 19.53125 0.5 Z M 17.25 -22.578125 C 15.351562 -22.578125 13.96875 -21.992188 13.09375 -20.828125 C 12.21875 -19.660156 11.765625 -17.726562 11.734375 -15.03125 L 11.734375 -14.203125 C 11.734375 -11.171875 12.179688 -9 13.078125 -7.6875 C 13.984375 -6.382812 15.410156 -5.734375 17.359375 -5.734375 C 20.804688 -5.734375 22.53125 -8.570312 22.53125 -14.25 C 22.53125 -17.03125 22.101562 -19.113281 21.25 -20.5 C 20.40625 -21.882812 19.070312 -22.578125 17.25 -22.578125 Z M 17.25 -22.578125 "/></g></g></g><g fill="#ffcf00" fill-opacity="1"><g transform="translate(333.9915, 75.767623)"><g><path d="M 15.71875 -23.265625 C 14.082031 -23.265625 12.800781 -22.742188 11.875 -21.703125 C 10.957031 -20.671875 10.429688 -19.207031 10.296875 -17.3125 L 21.09375 -17.3125 C 21.0625 -19.207031 20.566406 -20.671875 19.609375 -21.703125 C 18.648438 -22.742188 17.351562 -23.265625 15.71875 -23.265625 Z M 16.796875 0.5 C 12.253906 0.5 8.707031 -0.75 6.15625 -3.25 C 3.601562 -5.757812 2.328125 -9.3125 2.328125 -13.90625 C 2.328125 -18.625 3.503906 -22.273438 5.859375 -24.859375 C 8.222656 -27.441406 11.492188 -28.734375 15.671875 -28.734375 C 19.648438 -28.734375 22.75 -27.597656 24.96875 -25.328125 C 27.195312 -23.054688 28.3125 -19.921875 28.3125 -15.921875 L 28.3125 -12.1875 L 10.125 -12.1875 C 10.207031 -10 10.851562 -8.289062 12.0625 -7.0625 C 13.269531 -5.832031 14.96875 -5.21875 17.15625 -5.21875 C 18.851562 -5.21875 20.457031 -5.394531 21.96875 -5.75 C 23.488281 -6.101562 25.070312 -6.664062 26.71875 -7.4375 L 26.71875 -1.484375 C 25.375 -0.816406 23.9375 -0.320312 22.40625 0 C 20.875 0.332031 19.003906 0.5 16.796875 0.5 Z M 16.796875 0.5 "/></g></g></g><g fill="#ffcf00" fill-opacity="1"><g transform="translate(364.518659, 75.767623)"><g><path d="M 19.78125 -28.734375 C 20.820312 -28.734375 21.6875 -28.660156 22.375 -28.515625 L 21.796875 -21.296875 C 21.171875 -21.460938 20.414062 -21.546875 19.53125 -21.546875 C 17.070312 -21.546875 15.15625 -20.914062 13.78125 -19.65625 C 12.414062 -18.394531 11.734375 -16.628906 11.734375 -14.359375 L 11.734375 0 L 4.03125 0 L 4.03125 -28.203125 L 9.859375 -28.203125 L 11 -23.46875 L 11.375 -23.46875 C 12.25 -25.050781 13.429688 -26.320312 14.921875 -27.28125 C 16.410156 -28.25 18.03125 -28.734375 19.78125 -28.734375 Z M 19.78125 -28.734375 "/></g></g></g><g fill="#ffcf00" fill-opacity="1"><g transform="translate(387.981682, 75.767623)"><g><path d="M 15.71875 -23.265625 C 14.082031 -23.265625 12.800781 -22.742188 11.875 -21.703125 C 10.957031 -20.671875 10.429688 -19.207031 10.296875 -17.3125 L 21.09375 -17.3125 C 21.0625 -19.207031 20.566406 -20.671875 19.609375 -21.703125 C 18.648438 -22.742188 17.351562 -23.265625 15.71875 -23.265625 Z M 16.796875 0.5 C 12.253906 0.5 8.707031 -0.75 6.15625 -3.25 C 3.601562 -5.757812 2.328125 -9.3125 2.328125 -13.90625 C 2.328125 -18.625 3.503906 -22.273438 5.859375 -24.859375 C 8.222656 -27.441406 11.492188 -28.734375 15.671875 -28.734375 C 19.648438 -28.734375 22.75 -27.597656 24.96875 -25.328125 C 27.195312 -23.054688 28.3125 -19.921875 28.3125 -15.921875 L 28.3125 -12.1875 L 10.125 -12.1875 C 10.207031 -10 10.851562 -8.289062 12.0625 -7.0625 C 13.269531 -5.832031 14.96875 -5.21875 17.15625 -5.21875 C 18.851562 -5.21875 20.457031 -5.394531 21.96875 -5.75 C 23.488281 -6.101562 25.070312 -6.664062 26.71875 -7.4375 L 26.71875 -1.484375 C 25.375 -0.816406 23.9375 -0.320312 22.40625 0 C 20.875 0.332031 19.003906 0.5 16.796875 0.5 Z M 16.796875 0.5 "/></g></g></g><g fill="#ffcf00" fill-opacity="1"><g transform="translate(418.508865, 75.767623)"><g><path d="M 28.59375 -28.203125 L 28.59375 -24.296875 L 24.171875 -23.15625 C 24.972656 -21.894531 25.375 -20.484375 25.375 -18.921875 C 25.375 -15.890625 24.316406 -13.53125 22.203125 -11.84375 C 20.097656 -10.15625 17.171875 -9.3125 13.421875 -9.3125 L 12.03125 -9.390625 L 10.90625 -9.515625 C 10.113281 -8.910156 9.71875 -8.238281 9.71875 -7.5 C 9.71875 -6.382812 11.128906 -5.828125 13.953125 -5.828125 L 18.75 -5.828125 C 21.84375 -5.828125 24.203125 -5.160156 25.828125 -3.828125 C 27.453125 -2.503906 28.265625 -0.554688 28.265625 2.015625 C 28.265625 5.316406 26.882812 7.875 24.125 9.6875 C 21.375 11.5 17.425781 12.40625 12.28125 12.40625 C 8.351562 12.40625 5.347656 11.71875 3.265625 10.34375 C 1.191406 8.976562 0.15625 7.0625 0.15625 4.59375 C 0.15625 2.894531 0.679688 1.472656 1.734375 0.328125 C 2.796875 -0.816406 4.351562 -1.632812 6.40625 -2.125 C 5.613281 -2.457031 4.921875 -3.003906 4.328125 -3.765625 C 3.742188 -4.535156 3.453125 -5.347656 3.453125 -6.203125 C 3.453125 -7.285156 3.765625 -8.179688 4.390625 -8.890625 C 5.015625 -9.609375 5.914062 -10.3125 7.09375 -11 C 5.613281 -11.632812 4.4375 -12.660156 3.5625 -14.078125 C 2.695312 -15.492188 2.265625 -17.160156 2.265625 -19.078125 C 2.265625 -22.148438 3.265625 -24.523438 5.265625 -26.203125 C 7.273438 -27.890625 10.132812 -28.734375 13.84375 -28.734375 C 14.632812 -28.734375 15.570312 -28.660156 16.65625 -28.515625 C 17.75 -28.378906 18.445312 -28.273438 18.75 -28.203125 Z M 6.8125 3.984375 C 6.8125 5.046875 7.316406 5.878906 8.328125 6.484375 C 9.347656 7.085938 10.773438 7.390625 12.609375 7.390625 C 15.367188 7.390625 17.53125 7.007812 19.09375 6.25 C 20.664062 5.5 21.453125 4.46875 21.453125 3.15625 C 21.453125 2.09375 20.988281 1.359375 20.0625 0.953125 C 19.132812 0.554688 17.703125 0.359375 15.765625 0.359375 L 11.78125 0.359375 C 10.363281 0.359375 9.179688 0.6875 8.234375 1.34375 C 7.285156 2.007812 6.8125 2.890625 6.8125 3.984375 Z M 9.609375 -18.96875 C 9.609375 -17.4375 9.957031 -16.222656 10.65625 -15.328125 C 11.351562 -14.441406 12.414062 -14 13.84375 -14 C 15.289062 -14 16.351562 -14.441406 17.03125 -15.328125 C 17.707031 -16.222656 18.046875 -17.4375 18.046875 -18.96875 C 18.046875 -22.363281 16.644531 -24.0625 13.84375 -24.0625 C 11.019531 -24.0625 9.609375 -22.363281 9.609375 -18.96875 Z M 9.609375 -18.96875 "/></g></g></g><g fill="#ffcf00" fill-opacity="1"><g transform="translate(447.698872, 75.767623)"><g><path d="M 19.78125 -28.734375 C 20.820312 -28.734375 21.6875 -28.660156 22.375 -28.515625 L 21.796875 -21.296875 C 21.171875 -21.460938 20.414062 -21.546875 19.53125 -21.546875 C 17.070312 -21.546875 15.15625 -20.914062 13.78125 -19.65625 C 12.414062 -18.394531 11.734375 -16.628906 11.734375 -14.359375 L 11.734375 0 L 4.03125 0 L 4.03125 -28.203125 L 9.859375 -28.203125 L 11 -23.46875 L 11.375 -23.46875 C 12.25 -25.050781 13.429688 -26.320312 14.921875 -27.28125 C 16.410156 -28.25 18.03125 -28.734375 19.78125 -28.734375 Z M 19.78125 -28.734375 "/></g></g></g><g fill="#ffcf00" fill-opacity="1"><g transform="translate(471.161872, 75.767623)"><g><path d="M 3.703125 -35.5 C 3.703125 -38.007812 5.097656 -39.265625 7.890625 -39.265625 C 10.679688 -39.265625 12.078125 -38.007812 12.078125 -35.5 C 12.078125 -34.300781 11.726562 -33.367188 11.03125 -32.703125 C 10.332031 -32.046875 9.285156 -31.71875 7.890625 -31.71875 C 5.097656 -31.71875 3.703125 -32.976562 3.703125 -35.5 Z M 11.734375 0 L 4.03125 0 L 4.03125 -28.203125 L 11.734375 -28.203125 Z M 11.734375 0 "/></g></g></g><g fill="#ffcf00" fill-opacity="1"><g transform="translate(486.930021, 75.767623)"><g><path d="M 30.078125 0 L 22.375 0 L 22.375 -16.46875 C 22.375 -18.507812 22.007812 -20.035156 21.28125 -21.046875 C 20.5625 -22.066406 19.414062 -22.578125 17.84375 -22.578125 C 15.6875 -22.578125 14.128906 -21.859375 13.171875 -20.421875 C 12.210938 -18.984375 11.734375 -16.597656 11.734375 -13.265625 L 11.734375 0 L 4.03125 0 L 4.03125 -28.203125 L 9.921875 -28.203125 L 10.953125 -24.59375 L 11.375 -24.59375 C 12.238281 -25.957031 13.421875 -26.988281 14.921875 -27.6875 C 16.429688 -28.382812 18.144531 -28.734375 20.0625 -28.734375 C 23.34375 -28.734375 25.832031 -27.84375 27.53125 -26.0625 C 29.226562 -24.289062 30.078125 -21.734375 30.078125 -18.390625 Z M 30.078125 0 "/></g></g></g><g fill="#ffcf00" fill-opacity="1"><g transform="translate(520.888356, 75.767623)"><g><path d="M 21.953125 0 L 20.46875 -3.828125 L 20.265625 -3.828125 C 18.960938 -2.203125 17.625 -1.070312 16.25 -0.4375 C 14.882812 0.1875 13.101562 0.5 10.90625 0.5 C 8.195312 0.5 6.0625 -0.269531 4.5 -1.8125 C 2.945312 -3.363281 2.171875 -5.566406 2.171875 -8.421875 C 2.171875 -11.421875 3.21875 -13.628906 5.3125 -15.046875 C 7.40625 -16.472656 10.5625 -17.257812 14.78125 -17.40625 L 19.6875 -17.5625 L 19.6875 -18.796875 C 19.6875 -21.648438 18.222656 -23.078125 15.296875 -23.078125 C 13.035156 -23.078125 10.382812 -22.398438 7.34375 -21.046875 L 4.796875 -26.234375 C 8.035156 -27.929688 11.632812 -28.78125 15.59375 -28.78125 C 19.375 -28.78125 22.273438 -27.957031 24.296875 -26.3125 C 26.316406 -24.664062 27.328125 -22.160156 27.328125 -18.796875 L 27.328125 0 Z M 19.6875 -13.0625 L 16.703125 -12.96875 C 14.460938 -12.90625 12.796875 -12.5 11.703125 -11.75 C 10.609375 -11.007812 10.0625 -9.882812 10.0625 -8.375 C 10.0625 -6.207031 11.304688 -5.125 13.796875 -5.125 C 15.578125 -5.125 17.003906 -5.632812 18.078125 -6.65625 C 19.148438 -7.6875 19.6875 -9.050781 19.6875 -10.75 Z M 19.6875 -13.0625 "/></g></g></g></svg>